<svg width="1440" height="840" viewBox="0 0 1440 840" fill="none" xmlns="http://www.w3.org/2000/svg">
<g opacity="0.2" filter="url(#filter0_f_316_2318)">
<ellipse cx="1226.5" cy="357.45" rx="395.5" ry="206.45" fill="#373D98"/>
</g>
<g opacity="0.2" filter="url(#filter1_f_316_2318)">
<ellipse cx="76.5" cy="115.45" rx="395.5" ry="206.45" fill="#35875D"/>
</g>
<path d="M843.104 -10.2689C793.545 77.6728 739.651 109.515 694.812 119.985C611.018 139.553 555.163 85.3227 474.123 106.771C400.33 126.295 388.167 189.299 337.883 236.398C278.262 292.249 156.532 337.63 -119.758 276.031M914.077 -26.6061C860.131 85.7008 798.277 125.161 746.539 137.716C652.169 160.525 588.193 95.9979 495.799 122.708C414.073 146.057 403.147 215.134 341.014 269.98C273.812 329.31 148.227 374.723 -119.771 317.586M985.061 -42.9432C926.741 93.7397 856.926 140.806 798.29 155.458C693.343 181.508 621.342 106.922 517.51 138.645C427.923 166.025 418.277 241.055 344.169 303.572C269.549 366.522 139.935 411.827 -119.749 359.153M1056.05 -59.2802C993.35 101.779 915.564 156.452 850.04 173.189C734.528 202.492 654.419 117.651 539.21 154.572C441.713 185.82 433.478 267.041 347.324 337.143C261.169 407.246 131.653 448.91 -119.727 400.687M1127.03 -75.6174C1059.95 109.818 974.201 172.108 901.779 190.92C775.69 223.464 687.484 128.359 560.909 170.509C455.503 205.604 448.737 293.102 350.479 370.725C261.314 441.163 123.361 486.003 -119.705 442.243M1198 -91.9544C1126.55 117.857 1032.83 187.754 953.518 208.651C816.864 244.437 720.537 139.056 582.597 186.436C469.269 225.366 464.043 319.196 353.622 404.296C257.249 478.57 115.068 523.086 -119.707 483.789M1268.99 -108.292C1193.16 125.895 1091.47 203.4 1005.27 226.382C858.038 265.409 753.591 149.731 604.308 202.373C483.059 245.128 479.396 345.355 356.777 437.889C253.231 516.02 106.775 560.19 -119.685 525.355M1339.97 -124.629C1259.75 133.934 1150.11 219.045 1057.01 244.123C899.2 286.403 786.632 160.406 625.996 218.31C496.813 264.88 494.772 371.546 359.92 471.471C249.225 553.491 98.471 597.284 -119.675 566.911M1410.96 -140.966C1326.36 141.962 1208.75 234.691 1108.76 261.854C940.385 307.376 819.685 171.06 647.707 234.248C510.591 284.62 510.183 397.77 363.086 505.053C245.254 590.995 90.2012 634.377 -119.653 608.456M1481.93 -157.303C1392.96 150.001 1267.38 250.336 1160.5 279.585C981.548 328.348 852.572 181.368 669.394 250.174C524.227 304.08 525.583 424.015 366.218 538.634C241.259 628.499 81.8855 671.471 -119.654 650.012M1552.91 -173.64C1459.56 158.04 1326.02 265.982 1212.24 297.316C1022.71 349.331 885.614 192.033 691.094 266.111C537.993 323.842 541.03 450.293 369.373 572.216C237.3 666.025 73.6043 708.564 -119.633 691.568M1623.9 -189.977C1526.17 166.079 1384.65 281.627 1263.99 315.047C1063.89 370.304 918.667 202.697 712.793 282.038C551.759 343.583 556.476 476.582 372.527 605.787C233.34 703.551 65.3113 745.647 -119.623 733.113M1694.87 -206.314C1592.76 174.118 1443.29 297.273 1315.72 332.789C1105.06 391.287 951.709 213.383 734.493 297.986C565.526 363.356 571.935 502.902 375.682 639.38C229.393 741.109 57.0301 782.751 -119.601 774.669M1765.85 -222.651C1659.36 182.157 1501.93 312.919 1367.46 350.52C1146.23 412.26 984.75 224.048 756.181 313.913C579.28 383.097 587.405 529.223 378.814 672.962C225.434 778.667 48.7146 819.845 -119.602 816.225M1836.84 -238.989C1725.97 190.196 1560.57 328.564 1419.21 368.251C1187.41 433.243 1017.8 234.723 777.892 329.85C593.07 402.859 602.898 555.566 381.98 706.544C221.498 816.225 40.4448 856.938 -119.569 857.781M1907.82 -255.326C1792.58 198.224 1619.2 344.221 1470.96 385.982C1228.58 454.215 1050.86 245.388 799.591 345.777C606.836 422.6 618.638 582.243 385.135 740.115C217.749 854.021 32.1517 894.021 -119.559 899.326M1978.79 -271.663C1859.17 206.263 1677.83 359.866 1522.69 403.713C1269.74 475.188 1083.89 256.052 821.279 361.714C620.591 442.362 634.003 608.446 388.266 773.708C213.697 891.482 23.836 931.125 -119.56 940.893M2049.78 -288C1925.78 214.302 1736.48 375.512 1574.44 421.455C1310.91 496.171 1116.93 266.738 842.978 377.651C634.357 462.125 649.368 634.647 391.421 807.289C209.679 928.943 15.555 968.219 -119.538 982.438" stroke="url(#paint0_linear_316_2318)" stroke-miterlimit="10"/>
<defs>
<filter id="filter0_f_316_2318" x="594.945" y="-85.0554" width="1263.11" height="885.012" filterUnits="userSpaceOnUse" color-interpolation-filters="sRGB">
<feFlood flood-opacity="0" result="BackgroundImageFix"/>
<feBlend mode="normal" in="SourceGraphic" in2="BackgroundImageFix" result="shape"/>
<feGaussianBlur stdDeviation="118.028" result="effect1_foregroundBlur_316_2318"/>
</filter>
<filter id="filter1_f_316_2318" x="-555.055" y="-327.055" width="1263.11" height="885.012" filterUnits="userSpaceOnUse" color-interpolation-filters="sRGB">
<feFlood flood-opacity="0" result="BackgroundImageFix"/>
<feBlend mode="normal" in="SourceGraphic" in2="BackgroundImageFix" result="shape"/>
<feGaussianBlur stdDeviation="118.028" result="effect1_foregroundBlur_316_2318"/>
</filter>
<linearGradient id="paint0_linear_316_2318" x1="1390.4" y1="88.5942" x2="167.101" y2="477.594" gradientUnits="userSpaceOnUse">
<stop stop-color="#20234F"/>
<stop offset="1" stop-color="#20234F" stop-opacity="0"/>
</linearGradient>
</defs>
</svg>
